<svg width="738" height="90" viewBox="0 0 738 98" fill="none" xmlns="http://www.w3.org/2000/svg">
<g filter="url(#filter0_d)">
<rect x="4" width="730" height="90" fill="#9C2626"/>
</g>
<g filter="url(#filter1_d)">
<path d="M229.003 48.121C229.792 48.121 230.48 48.025 231.067 47.833C231.653 47.6303 232.139 47.3477 232.523 46.985C232.917 46.6117 233.211 46.1637 233.403 45.641C233.595 45.1077 233.691 44.5157 233.691 43.865C233.691 43.2463 233.595 42.6863 233.403 42.185C233.211 41.6837 232.923 41.257 232.539 40.905C232.155 40.553 231.669 40.2863 231.083 40.105C230.496 39.913 229.803 39.817 229.003 39.817H225.787V48.121H229.003ZM229.003 36.489C230.549 36.489 231.888 36.6703 233.019 37.033C234.149 37.3957 235.083 37.9023 235.819 38.553C236.555 39.2037 237.099 39.9823 237.451 40.889C237.813 41.7957 237.995 42.7877 237.995 43.865C237.995 44.985 237.808 46.0143 237.435 46.953C237.061 47.881 236.501 48.681 235.755 49.353C235.008 50.025 234.069 50.5477 232.939 50.921C231.819 51.2943 230.507 51.481 229.003 51.481H225.787V59.625H221.483V36.489H229.003ZM250.497 49.529C250.497 49.017 250.422 48.537 250.273 48.089C250.134 47.6303 249.921 47.2303 249.633 46.889C249.345 46.5477 248.977 46.281 248.529 46.089C248.092 45.8863 247.58 45.785 246.993 45.785C245.852 45.785 244.95 46.1103 244.289 46.761C243.638 47.4117 243.222 48.3343 243.041 49.529H250.497ZM242.961 51.913C243.025 52.7557 243.174 53.4863 243.409 54.105C243.644 54.713 243.953 55.2197 244.337 55.625C244.721 56.0197 245.174 56.3183 245.697 56.521C246.23 56.713 246.817 56.809 247.457 56.809C248.097 56.809 248.646 56.7343 249.105 56.585C249.574 56.4357 249.98 56.2703 250.321 56.089C250.673 55.9077 250.977 55.7423 251.233 55.593C251.5 55.4437 251.756 55.369 252.001 55.369C252.332 55.369 252.577 55.4917 252.737 55.737L253.873 57.177C253.436 57.689 252.945 58.121 252.401 58.473C251.857 58.8143 251.286 59.0917 250.689 59.305C250.102 59.5077 249.5 59.6517 248.881 59.737C248.273 59.8223 247.681 59.865 247.105 59.865C245.964 59.865 244.902 59.6783 243.921 59.305C242.94 58.921 242.086 58.361 241.361 57.625C240.636 56.8783 240.065 55.961 239.649 54.873C239.233 53.7743 239.025 52.505 239.025 51.065C239.025 49.945 239.206 48.8943 239.569 47.913C239.932 46.921 240.449 46.0623 241.121 45.337C241.804 44.601 242.63 44.0197 243.601 43.593C244.582 43.1663 245.686 42.953 246.913 42.953C247.948 42.953 248.902 43.1183 249.777 43.449C250.652 43.7797 251.404 44.265 252.033 44.905C252.662 45.5343 253.153 46.313 253.505 47.241C253.868 48.1583 254.049 49.209 254.049 50.393C254.049 50.9903 253.985 51.3957 253.857 51.609C253.729 51.8117 253.484 51.913 253.121 51.913H242.961ZM266.823 44.249C267.015 43.9397 267.276 43.689 267.607 43.497C267.937 43.305 268.289 43.209 268.663 43.209H271.767L267.943 49.305C267.676 49.7317 267.404 50.0783 267.127 50.345C266.849 50.601 266.513 50.8037 266.119 50.953C266.652 51.113 267.089 51.353 267.431 51.673C267.772 51.9823 268.081 52.377 268.359 52.857L272.199 59.625H269.463C268.769 59.625 268.231 59.5077 267.847 59.273C267.463 59.0383 267.137 58.7023 266.871 58.265L264.455 53.721C264.241 53.3263 263.964 53.033 263.623 52.841C263.292 52.649 262.903 52.553 262.455 52.553H260.967V59.625H257.015V43.209H260.967V49.977H262.247C262.695 49.977 263.052 49.897 263.319 49.737C263.596 49.5663 263.831 49.3103 264.023 48.969L266.823 44.249ZM289.622 59.625H285.67V46.233H281.638C281.51 48.249 281.312 49.9877 281.046 51.449C280.779 52.8997 280.459 54.1317 280.086 55.145C279.723 56.1583 279.312 56.9743 278.854 57.593C278.406 58.201 277.926 58.6757 277.414 59.017C276.902 59.3583 276.374 59.5823 275.83 59.689C275.286 59.8063 274.736 59.865 274.182 59.865C273.595 59.865 273.163 59.8117 272.886 59.705C272.619 59.609 272.486 59.4703 272.486 59.289V56.825H273.43C273.782 56.825 274.134 56.7717 274.486 56.665C274.838 56.5583 275.179 56.3397 275.51 56.009C275.84 55.6783 276.155 55.209 276.454 54.601C276.752 53.9823 277.024 53.1717 277.27 52.169C277.526 51.1557 277.75 49.9183 277.942 48.457C278.134 46.9957 278.283 45.2463 278.39 43.209H289.622V59.625ZM302.187 52.617C301.045 52.6703 300.085 52.7717 299.307 52.921C298.528 53.0597 297.904 53.241 297.435 53.465C296.965 53.689 296.629 53.9503 296.427 54.249C296.224 54.5477 296.123 54.873 296.123 55.225C296.123 55.9183 296.325 56.4143 296.731 56.713C297.147 57.0117 297.685 57.161 298.347 57.161C299.157 57.161 299.856 57.017 300.443 56.729C301.04 56.4303 301.621 55.9823 302.187 55.385V52.617ZM293.131 45.497C295.019 43.769 297.291 42.905 299.947 42.905C300.907 42.905 301.765 43.065 302.523 43.385C303.28 43.6943 303.92 44.1317 304.443 44.697C304.965 45.2517 305.36 45.9183 305.627 46.697C305.904 47.4757 306.043 48.329 306.043 49.257V59.625H304.251C303.877 59.625 303.589 59.5717 303.387 59.465C303.184 59.3477 303.024 59.1183 302.907 58.777L302.555 57.593C302.139 57.9663 301.733 58.297 301.339 58.585C300.944 58.8623 300.533 59.097 300.107 59.289C299.68 59.481 299.221 59.625 298.731 59.721C298.251 59.8277 297.717 59.881 297.131 59.881C296.437 59.881 295.797 59.7903 295.211 59.609C294.624 59.417 294.117 59.1343 293.691 58.761C293.264 58.3877 292.933 57.9237 292.699 57.369C292.464 56.8143 292.347 56.169 292.347 55.433C292.347 55.017 292.416 54.6063 292.555 54.201C292.693 53.785 292.917 53.3903 293.227 53.017C293.547 52.6437 293.957 52.2917 294.459 51.961C294.96 51.6303 295.573 51.3423 296.299 51.097C297.035 50.8517 297.888 50.6543 298.859 50.505C299.829 50.345 300.939 50.249 302.187 50.217V49.257C302.187 48.1583 301.952 47.3477 301.483 46.825C301.013 46.2917 300.336 46.025 299.451 46.025C298.811 46.025 298.277 46.0997 297.851 46.249C297.435 46.3983 297.067 46.569 296.747 46.761C296.427 46.9423 296.133 47.1077 295.867 47.257C295.611 47.4063 295.323 47.481 295.003 47.481C294.725 47.481 294.491 47.4117 294.299 47.273C294.107 47.1237 293.952 46.953 293.835 46.761L293.131 45.497ZM328.789 43.177V59.625H325.221V50.473C325.221 50.0997 325.237 49.6783 325.269 49.209C325.311 48.7397 325.375 48.3023 325.461 47.897L320.629 56.761C320.394 57.2197 320.021 57.449 319.509 57.449H319.093C318.581 57.449 318.207 57.2197 317.973 56.761L313.077 47.849C313.151 48.2543 313.21 48.697 313.253 49.177C313.306 49.657 313.333 50.089 313.333 50.473V59.625H309.765V43.177H313.029C313.306 43.177 313.578 43.2357 313.845 43.353C314.122 43.4703 314.351 43.705 314.533 44.057L318.405 50.969C318.575 51.289 318.735 51.6303 318.885 51.993C319.034 52.345 319.173 52.7023 319.301 53.065C319.429 52.7023 319.562 52.3397 319.701 51.977C319.85 51.6143 320.01 51.2783 320.181 50.969L324.021 44.057C324.213 43.6943 324.442 43.4597 324.709 43.353C324.975 43.2357 325.247 43.177 325.525 43.177H328.789ZM347.006 43.209V59.625H343.054V52.361H336.654V59.625H332.702V43.209H336.654V49.433H343.054V43.209H347.006ZM357.625 56.793C358.521 56.793 359.188 56.569 359.625 56.121C360.073 55.673 360.297 55.097 360.297 54.393C360.297 54.0943 360.244 53.8063 360.137 53.529C360.041 53.2517 359.886 53.0063 359.673 52.793C359.46 52.5797 359.182 52.4143 358.841 52.297C358.5 52.169 358.089 52.105 357.609 52.105H354.681V56.793H357.625ZM357.593 49.289C358.734 49.289 359.7 49.4277 360.489 49.705C361.278 49.9823 361.918 50.3557 362.409 50.825C362.9 51.2943 363.252 51.8383 363.465 52.457C363.689 53.065 363.801 53.705 363.801 54.377C363.801 55.145 363.662 55.8543 363.385 56.505C363.118 57.145 362.718 57.6997 362.185 58.169C361.662 58.6277 361.017 58.985 360.249 59.241C359.492 59.497 358.622 59.625 357.641 59.625H350.921V43.209H354.681V49.289H357.593ZM370.745 43.209V59.625H366.793V43.209H370.745ZM389.392 43.209V59.625H385.44V50.041C385.44 49.7957 385.45 49.529 385.472 49.241C385.504 48.9423 385.541 48.6437 385.584 48.345C385.37 48.8357 385.136 49.2677 384.88 49.641C384.858 49.6623 384.752 49.8117 384.56 50.089C384.368 50.3557 384.117 50.7023 383.808 51.129C383.509 51.5557 383.168 52.041 382.784 52.585C382.4 53.1183 382.01 53.6623 381.616 54.217C380.688 55.529 379.637 57.0117 378.464 58.665C378.314 58.889 378.117 59.1077 377.872 59.321C377.637 59.5343 377.365 59.641 377.056 59.641H374.64V43.225H378.592V52.809C378.592 53.0543 378.576 53.3263 378.544 53.625C378.522 53.913 378.49 54.2063 378.448 54.505C378.682 53.9823 378.917 53.5503 379.152 53.209C379.162 53.1877 379.264 53.0437 379.456 52.777C379.648 52.5103 379.893 52.1637 380.192 51.737C380.501 51.3103 380.848 50.8303 381.232 50.297C381.616 49.753 382.005 49.1983 382.4 48.633C383.328 47.321 384.384 45.8383 385.568 44.185C385.717 43.9503 385.914 43.7317 386.16 43.529C386.405 43.3157 386.682 43.209 386.992 43.209H389.392ZM382.24 39.049C382.634 39.049 382.965 39.0063 383.232 38.921C383.498 38.8357 383.712 38.697 383.872 38.505C384.032 38.3023 384.144 38.0357 384.208 37.705C384.272 37.3743 384.304 36.969 384.304 36.489H386.64C386.917 36.489 387.12 36.6063 387.248 36.841C387.386 37.065 387.456 37.3157 387.456 37.593C387.456 38.137 387.333 38.633 387.088 39.081C386.842 39.5183 386.49 39.8917 386.032 40.201C385.573 40.4997 385.024 40.7343 384.384 40.905C383.744 41.065 383.029 41.145 382.24 41.145C381.45 41.145 380.736 41.065 380.096 40.905C379.456 40.7343 378.906 40.4997 378.448 40.201C377.989 39.8917 377.637 39.5183 377.392 39.081C377.146 38.633 377.024 38.137 377.024 37.593C377.024 37.3157 377.088 37.065 377.216 36.841C377.354 36.6063 377.562 36.489 377.84 36.489H380.176C380.176 36.969 380.208 37.3743 380.272 37.705C380.336 38.0357 380.448 38.3023 380.608 38.505C380.768 38.697 380.976 38.8357 381.232 38.921C381.498 39.0063 381.834 39.049 382.24 39.049ZM408.789 56.985C410.155 56.985 411.173 56.5477 411.845 55.673C412.517 54.7983 412.853 53.5183 412.853 51.833C412.853 50.1583 412.523 48.8837 411.861 48.009C411.211 47.1343 410.213 46.697 408.869 46.697C407.525 46.697 406.501 47.113 405.797 47.945C405.093 48.7663 404.741 49.9983 404.741 51.641C404.741 53.3797 405.072 54.7077 405.733 55.625C406.405 56.5317 407.424 56.985 408.789 56.985ZM409.941 40.233C408.939 40.297 408.08 40.4943 407.365 40.825C406.661 41.145 406.075 41.5823 405.605 42.137C405.147 42.681 404.795 43.337 404.549 44.105C404.315 44.8623 404.176 45.705 404.133 46.633C404.4 46.217 404.725 45.8383 405.109 45.497C405.504 45.145 405.941 44.8463 406.421 44.601C406.912 44.345 407.44 44.1477 408.005 44.009C408.581 43.8703 409.195 43.801 409.845 43.801C410.933 43.801 411.915 43.993 412.789 44.377C413.664 44.761 414.405 45.305 415.013 46.009C415.632 46.713 416.101 47.561 416.421 48.553C416.752 49.5343 416.917 50.6223 416.917 51.817C416.917 53.0543 416.72 54.169 416.325 55.161C415.941 56.153 415.392 57.001 414.677 57.705C413.973 58.3983 413.12 58.9317 412.117 59.305C411.115 59.6783 410.005 59.865 408.789 59.865C407.605 59.865 406.512 59.673 405.509 59.289C404.517 58.905 403.659 58.281 402.933 57.417C402.208 56.553 401.643 55.433 401.237 54.057C400.832 52.6703 400.629 50.9797 400.629 48.985C400.629 47.3103 400.784 45.753 401.093 44.313C401.403 42.873 401.909 41.6143 402.613 40.537C403.317 39.449 404.24 38.5743 405.381 37.913C406.523 37.2517 407.931 36.857 409.605 36.729L415.445 36.281L415.653 38.329C415.696 38.7663 415.632 39.1397 415.461 39.449C415.291 39.7477 414.987 39.9077 414.549 39.929L409.941 40.233ZM434.841 59.625H430.889V46.233H426.857C426.729 48.249 426.531 49.9877 426.265 51.449C425.998 52.8997 425.678 54.1317 425.305 55.145C424.942 56.1583 424.531 56.9743 424.073 57.593C423.625 58.201 423.145 58.6757 422.633 59.017C422.121 59.3583 421.593 59.5823 421.049 59.689C420.505 59.8063 419.955 59.865 419.401 59.865C418.814 59.865 418.382 59.8117 418.105 59.705C417.838 59.609 417.705 59.4703 417.705 59.289V56.825H418.649C419.001 56.825 419.353 56.7717 419.705 56.665C420.057 56.5583 420.398 56.3397 420.729 56.009C421.059 55.6783 421.374 55.209 421.673 54.601C421.971 53.9823 422.243 53.1717 422.489 52.169C422.745 51.1557 422.969 49.9183 423.161 48.457C423.353 46.9957 423.502 45.2463 423.609 43.209H434.841V59.625ZM445.998 42.953C447.214 42.953 448.318 43.1503 449.31 43.545C450.312 43.9397 451.166 44.4997 451.87 45.225C452.584 45.9503 453.134 46.8357 453.518 47.881C453.902 48.9263 454.094 50.0943 454.094 51.385C454.094 52.6863 453.902 53.8597 453.518 54.905C453.134 55.9503 452.584 56.841 451.87 57.577C451.166 58.313 450.312 58.8783 449.31 59.273C448.318 59.6677 447.214 59.865 445.998 59.865C444.771 59.865 443.656 59.6677 442.654 59.273C441.651 58.8783 440.792 58.313 440.078 57.577C439.374 56.841 438.824 55.9503 438.43 54.905C438.046 53.8597 437.854 52.6863 437.854 51.385C437.854 50.0943 438.046 48.9263 438.43 47.881C438.824 46.8357 439.374 45.9503 440.078 45.225C440.792 44.4997 441.651 43.9397 442.654 43.545C443.656 43.1503 444.771 42.953 445.998 42.953ZM445.998 56.825C447.363 56.825 448.371 56.3663 449.022 55.449C449.683 54.5317 450.014 53.1877 450.014 51.417C450.014 49.6463 449.683 48.297 449.022 47.369C448.371 46.441 447.363 45.977 445.998 45.977C444.611 45.977 443.582 46.4463 442.91 47.385C442.248 48.313 441.918 49.657 441.918 51.417C441.918 53.177 442.248 54.521 442.91 55.449C443.582 56.3663 444.611 56.825 445.998 56.825ZM466.917 44.249C467.109 43.9397 467.37 43.689 467.701 43.497C468.031 43.305 468.383 43.209 468.757 43.209H471.861L468.037 49.305C467.77 49.7317 467.498 50.0783 467.221 50.345C466.943 50.601 466.607 50.8037 466.213 50.953C466.746 51.113 467.183 51.353 467.525 51.673C467.866 51.9823 468.175 52.377 468.453 52.857L472.293 59.625H469.557C468.863 59.625 468.325 59.5077 467.941 59.273C467.557 59.0383 467.231 58.7023 466.965 58.265L464.549 53.721C464.335 53.3263 464.058 53.033 463.717 52.841C463.386 52.649 462.997 52.553 462.549 52.553H461.061V59.625H457.109V43.209H461.061V49.977H462.341C462.789 49.977 463.146 49.897 463.413 49.737C463.69 49.5663 463.925 49.3103 464.117 48.969L466.917 44.249Z" fill="white"/>
</g>
<defs>
<filter id="filter0_d" x="0" y="0" width="738" height="98" filterUnits="userSpaceOnUse" color-interpolation-filters="sRGB">
<feFlood flood-opacity="0" result="BackgroundImageFix"/>
<feColorMatrix in="SourceAlpha" type="matrix" values="0 0 0 0 0 0 0 0 0 0 0 0 0 0 0 0 0 0 127 0"/>
<feOffset dy="4"/>
<feGaussianBlur stdDeviation="2"/>
<feColorMatrix type="matrix" values="0 0 0 0 0 0 0 0 0 0 0 0 0 0 0 0 0 0 0.25 0"/>
<feBlend mode="normal" in2="BackgroundImageFix" result="effect1_dropShadow"/>
<feBlend mode="normal" in="SourceGraphic" in2="effect1_dropShadow" result="shape"/>
</filter>
<filter id="filter1_d" x="217.483" y="36.281" width="258.81" height="31.6" filterUnits="userSpaceOnUse" color-interpolation-filters="sRGB">
<feFlood flood-opacity="0" result="BackgroundImageFix"/>
<feColorMatrix in="SourceAlpha" type="matrix" values="0 0 0 0 0 0 0 0 0 0 0 0 0 0 0 0 0 0 127 0"/>
<feOffset dy="4"/>
<feGaussianBlur stdDeviation="2"/>
<feColorMatrix type="matrix" values="0 0 0 0 0 0 0 0 0 0 0 0 0 0 0 0 0 0 0.25 0"/>
<feBlend mode="normal" in2="BackgroundImageFix" result="effect1_dropShadow"/>
<feBlend mode="normal" in="SourceGraphic" in2="effect1_dropShadow" result="shape"/>
</filter>
</defs>
</svg>
