<svg width="204" height="58" viewBox="0 0 204 58" fill="none" xmlns="http://www.w3.org/2000/svg">
<g filter="url(#filter0_d)">
<path d="M73.896 36H69.576V12.864H73.896V36ZM95.236 16.4H88.26V36H83.956V16.4H76.98V12.864H95.236V16.4ZM106.92 32.64C107.72 32.64 108.392 32.544 108.936 32.352C109.48 32.16 109.912 31.904 110.232 31.584C110.562 31.264 110.797 30.8907 110.936 30.464C111.085 30.0373 111.16 29.584 111.16 29.104C111.16 28.6027 111.08 28.1547 110.92 27.76C110.76 27.3547 110.509 27.0133 110.168 26.736C109.826 26.448 109.384 26.2293 108.84 26.08C108.306 25.9307 107.661 25.856 106.904 25.856H102.568V32.64H106.92ZM102.568 16.192V22.88H105.992C107.464 22.88 108.573 22.6133 109.32 22.08C110.077 21.5467 110.456 20.6987 110.456 19.536C110.456 18.3307 110.114 17.472 109.432 16.96C108.749 16.448 107.682 16.192 106.232 16.192H102.568ZM106.232 12.864C107.746 12.864 109.042 13.008 110.12 13.296C111.197 13.584 112.077 13.9947 112.76 14.528C113.453 15.0613 113.96 15.7067 114.28 16.464C114.6 17.2213 114.76 18.0747 114.76 19.024C114.76 19.568 114.68 20.0907 114.52 20.592C114.36 21.0827 114.109 21.5467 113.767 21.984C113.437 22.4107 113.01 22.8 112.488 23.152C111.976 23.504 111.362 23.8027 110.648 24.048C113.826 24.7627 115.416 26.48 115.416 29.2C115.416 30.1813 115.229 31.088 114.856 31.92C114.482 32.752 113.938 33.472 113.224 34.08C112.509 34.6773 111.629 35.1467 110.584 35.488C109.538 35.8293 108.344 36 107 36H98.2635V12.864H106.232ZM132.878 32.448V36H119.326V12.864H123.63V32.448H132.878ZM157.203 24.432C157.203 26.128 156.92 27.7013 156.355 29.152C155.8 30.592 155.011 31.84 153.987 32.896C152.963 33.952 151.731 34.7787 150.291 35.376C148.851 35.9627 147.251 36.256 145.491 36.256C143.741 36.256 142.147 35.9627 140.707 35.376C139.267 34.7787 138.029 33.952 136.995 32.896C135.971 31.84 135.176 30.592 134.611 29.152C134.045 27.7013 133.763 26.128 133.763 24.432C133.763 22.736 134.045 21.168 134.611 19.728C135.176 18.2773 135.971 17.024 136.995 15.968C138.029 14.912 139.267 14.0907 140.707 13.504C142.147 12.9067 143.741 12.608 145.491 12.608C146.664 12.608 147.768 12.7467 148.803 13.024C149.837 13.2907 150.787 13.6747 151.651 14.176C152.515 14.6667 153.288 15.2693 153.971 15.984C154.664 16.688 155.251 17.4773 155.731 18.352C156.211 19.2267 156.573 20.176 156.819 21.2C157.075 22.224 157.203 23.3013 157.203 24.432ZM152.803 24.432C152.803 23.1627 152.632 22.0267 152.291 21.024C151.949 20.0107 151.464 19.152 150.835 18.448C150.205 17.744 149.437 17.2053 148.531 16.832C147.635 16.4587 146.621 16.272 145.491 16.272C144.36 16.272 143.341 16.4587 142.435 16.832C141.539 17.2053 140.771 17.744 140.131 18.448C139.501 19.152 139.016 20.0107 138.675 21.024C138.333 22.0267 138.163 23.1627 138.163 24.432C138.163 25.7013 138.333 26.8427 138.675 27.856C139.016 28.8587 139.501 29.712 140.131 30.416C140.771 31.1093 141.539 31.6427 142.435 32.016C143.341 32.3893 144.36 32.576 145.491 32.576C146.621 32.576 147.635 32.3893 148.531 32.016C149.437 31.6427 150.205 31.1093 150.835 30.416C151.464 29.712 151.949 28.8587 152.291 27.856C152.632 26.8427 152.803 25.7013 152.803 24.432ZM180.054 24.4V33.76C178.881 34.624 177.628 35.2587 176.294 35.664C174.972 36.0587 173.553 36.256 172.038 36.256C170.15 36.256 168.438 35.9627 166.902 35.376C165.377 34.7893 164.07 33.9733 162.982 32.928C161.905 31.8827 161.073 30.6347 160.486 29.184C159.9 27.7333 159.606 26.1493 159.606 24.432C159.606 22.6933 159.889 21.0987 160.454 19.648C161.02 18.1973 161.82 16.9493 162.854 15.904C163.9 14.8587 165.164 14.048 166.646 13.472C168.129 12.896 169.793 12.608 171.638 12.608C172.577 12.608 173.452 12.6827 174.262 12.832C175.084 12.9813 175.841 13.1893 176.534 13.456C177.238 13.712 177.878 14.0267 178.454 14.4C179.03 14.7733 179.558 15.184 180.038 15.632L178.806 17.584C178.614 17.8933 178.364 18.0853 178.054 18.16C177.745 18.224 177.409 18.144 177.046 17.92C176.694 17.7173 176.342 17.5147 175.99 17.312C175.638 17.1093 175.244 16.9333 174.806 16.784C174.38 16.6347 173.894 16.512 173.35 16.416C172.817 16.32 172.198 16.272 171.494 16.272C170.353 16.272 169.318 16.464 168.39 16.848C167.473 17.232 166.689 17.7813 166.038 18.496C165.388 19.2107 164.886 20.0693 164.534 21.072C164.182 22.0747 164.006 23.1947 164.006 24.432C164.006 25.7547 164.193 26.9387 164.566 27.984C164.95 29.0187 165.484 29.8987 166.166 30.624C166.86 31.3387 167.692 31.888 168.662 32.272C169.633 32.6453 170.716 32.832 171.91 32.832C172.764 32.832 173.526 32.7413 174.198 32.56C174.87 32.3787 175.526 32.1333 176.166 31.824V27.632H173.254C172.977 27.632 172.758 27.5573 172.598 27.408C172.449 27.248 172.374 27.056 172.374 26.832V24.4H180.054Z" fill="#AD0E0E"/>
</g>
<circle cx="28" cy="29" r="26" fill="#AD0E0E"/>
<path d="M46.4911 16.2111C46.6077 14.8353 45.5869 13.6255 44.2111 13.5089L21.7915 11.609C20.4157 11.4924 19.2059 12.5131 19.0893 13.8889C18.9727 15.2647 19.9935 16.4745 21.3693 16.5911L41.2978 18.28L39.609 38.2085C39.4924 39.5843 40.5131 40.7941 41.8889 40.9107C43.2647 41.0273 44.4745 40.0065 44.5911 38.6307L46.4911 16.2111ZM13.6122 44.9107L45.6122 17.9107L42.3878 14.0893L10.3878 41.0893L13.6122 44.9107Z" fill="white"/>
<path d="M72.004 54.112C72.324 54.112 72.604 54.07 72.844 53.986C73.084 53.902 73.282 53.782 73.438 53.626C73.598 53.47 73.718 53.282 73.798 53.062C73.878 52.842 73.918 52.594 73.918 52.318C73.918 51.938 73.79 51.636 73.534 51.412C73.282 51.184 72.896 51.07 72.376 51.07H70.69L70.318 54.112H72.004ZM71.158 47.284L70.792 50.278H72.178C72.502 50.278 72.784 50.236 73.024 50.152C73.268 50.064 73.47 49.944 73.63 49.792C73.794 49.636 73.916 49.45 73.996 49.234C74.076 49.018 74.116 48.78 74.116 48.52C74.116 48.108 73.992 47.8 73.744 47.596C73.496 47.388 73.112 47.284 72.592 47.284H71.158ZM72.694 46.402C73.138 46.402 73.52 46.448 73.84 46.54C74.164 46.628 74.43 46.756 74.638 46.924C74.846 47.088 75 47.29 75.1 47.53C75.2 47.766 75.25 48.03 75.25 48.322C75.25 48.574 75.212 48.818 75.136 49.054C75.064 49.286 74.954 49.5 74.806 49.696C74.662 49.892 74.478 50.066 74.254 50.218C74.034 50.37 73.776 50.492 73.48 50.584C73.996 50.7 74.382 50.902 74.638 51.19C74.898 51.478 75.028 51.848 75.028 52.3C75.028 52.696 74.956 53.06 74.812 53.392C74.672 53.72 74.468 54.004 74.2 54.244C73.932 54.484 73.604 54.67 73.216 54.802C72.832 54.934 72.398 55 71.914 55H69.088L70.144 46.402H72.694ZM84.5568 47.32L84.2028 50.218H87.2448L87.1308 51.1H84.0948L83.7288 54.088H87.5028L87.3888 55H82.4868L83.5428 46.402H88.4388L88.3248 47.32H84.5568ZM100.098 47.734C100.054 47.79 100.012 47.834 99.9718 47.866C99.9318 47.894 99.8838 47.908 99.8278 47.908C99.7598 47.908 99.6878 47.874 99.6118 47.806C99.5358 47.734 99.4378 47.658 99.3178 47.578C99.2018 47.494 99.0598 47.418 98.8918 47.35C98.7238 47.278 98.5138 47.242 98.2618 47.242C98.0058 47.242 97.7778 47.282 97.5778 47.362C97.3778 47.442 97.2078 47.552 97.0678 47.692C96.9318 47.828 96.8278 47.988 96.7558 48.172C96.6838 48.356 96.6478 48.554 96.6478 48.766C96.6478 48.974 96.6958 49.15 96.7918 49.294C96.8878 49.434 97.0138 49.556 97.1698 49.66C97.3258 49.76 97.5038 49.85 97.7038 49.93C97.9078 50.006 98.1138 50.086 98.3218 50.17C98.5298 50.25 98.7338 50.34 98.9338 50.44C99.1378 50.54 99.3178 50.664 99.4738 50.812C99.6298 50.96 99.7558 51.138 99.8518 51.346C99.9478 51.554 99.9958 51.806 99.9958 52.102C99.9958 52.51 99.9258 52.896 99.7858 53.26C99.6458 53.62 99.4438 53.936 99.1798 54.208C98.9198 54.48 98.6038 54.696 98.2318 54.856C97.8598 55.016 97.4418 55.096 96.9778 55.096C96.4658 55.096 96.0078 54.996 95.6038 54.796C95.2038 54.592 94.8738 54.318 94.6138 53.974L95.0098 53.44C95.0418 53.396 95.0818 53.36 95.1298 53.332C95.1778 53.304 95.2298 53.29 95.2858 53.29C95.3618 53.29 95.4438 53.336 95.5318 53.428C95.6198 53.516 95.7318 53.616 95.8678 53.728C96.0038 53.836 96.1718 53.936 96.3718 54.028C96.5718 54.116 96.8218 54.16 97.1218 54.16C97.3978 54.16 97.6458 54.116 97.8658 54.028C98.0898 53.94 98.2778 53.818 98.4298 53.662C98.5858 53.506 98.7058 53.32 98.7898 53.104C98.8738 52.884 98.9158 52.642 98.9158 52.378C98.9158 52.158 98.8678 51.976 98.7718 51.832C98.6758 51.684 98.5498 51.56 98.3938 51.46C98.2378 51.36 98.0598 51.274 97.8598 51.202C97.6598 51.126 97.4558 51.05 97.2478 50.974C97.0398 50.898 96.8358 50.812 96.6358 50.716C96.4358 50.62 96.2578 50.498 96.1018 50.35C95.9458 50.202 95.8198 50.02 95.7238 49.804C95.6278 49.588 95.5798 49.322 95.5798 49.006C95.5798 48.654 95.6438 48.316 95.7718 47.992C95.8998 47.668 96.0838 47.382 96.3238 47.134C96.5638 46.886 96.8558 46.688 97.1998 46.54C97.5478 46.392 97.9378 46.318 98.3698 46.318C98.8098 46.318 99.2058 46.402 99.5578 46.57C99.9098 46.738 100.2 46.968 100.428 47.26L100.098 47.734ZM113.674 47.344H111.142L110.194 55H109.078L110.014 47.344H107.47L107.578 46.402H113.788L113.674 47.344ZM136.748 50.092C136.748 50.824 136.634 51.496 136.406 52.108C136.182 52.72 135.868 53.248 135.464 53.692C135.064 54.132 134.588 54.476 134.036 54.724C133.488 54.968 132.89 55.09 132.242 55.09C131.714 55.09 131.238 54.996 130.814 54.808C130.394 54.62 130.034 54.36 129.734 54.028C129.438 53.692 129.21 53.294 129.05 52.834C128.894 52.374 128.816 51.87 128.816 51.322C128.816 50.59 128.93 49.918 129.158 49.306C129.386 48.69 129.702 48.16 130.106 47.716C130.51 47.272 130.986 46.926 131.534 46.678C132.086 46.43 132.684 46.306 133.328 46.306C133.856 46.306 134.33 46.402 134.75 46.594C135.174 46.782 135.534 47.044 135.83 47.38C136.126 47.716 136.352 48.116 136.508 48.58C136.668 49.04 136.748 49.544 136.748 50.092ZM135.596 50.116C135.596 49.68 135.54 49.286 135.428 48.934C135.316 48.578 135.156 48.276 134.948 48.028C134.744 47.78 134.492 47.588 134.192 47.452C133.896 47.316 133.562 47.248 133.19 47.248C132.718 47.248 132.284 47.344 131.888 47.536C131.496 47.724 131.156 47.994 130.868 48.346C130.584 48.698 130.362 49.124 130.202 49.624C130.046 50.12 129.968 50.676 129.968 51.292C129.968 51.728 130.022 52.122 130.13 52.474C130.242 52.826 130.402 53.126 130.61 53.374C130.818 53.622 131.07 53.814 131.366 53.95C131.662 54.082 131.996 54.148 132.368 54.148C132.844 54.148 133.28 54.054 133.676 53.866C134.072 53.678 134.412 53.41 134.696 53.062C134.98 52.71 135.2 52.286 135.356 51.79C135.516 51.29 135.596 50.732 135.596 50.116ZM146.008 47.32L145.636 50.38H148.852L148.732 51.292H145.522L145.066 55H143.938L144.994 46.402H149.89L149.776 47.32H146.008ZM166.367 55H165.239L166.289 46.402H167.417L166.367 55ZM180.894 47.344H178.362L177.414 55H176.298L177.234 47.344H174.69L174.798 46.402H181.008L180.894 47.344Z" fill="black"/>
<defs>
<filter id="filter0_d" x="65.576" y="12.608" width="118.478" height="31.648" filterUnits="userSpaceOnUse" color-interpolation-filters="sRGB">
<feFlood flood-opacity="0" result="BackgroundImageFix"/>
<feColorMatrix in="SourceAlpha" type="matrix" values="0 0 0 0 0 0 0 0 0 0 0 0 0 0 0 0 0 0 127 0"/>
<feOffset dy="4"/>
<feGaussianBlur stdDeviation="2"/>
<feColorMatrix type="matrix" values="0 0 0 0 0 0 0 0 0 0 0 0 0 0 0 0 0 0 0.25 0"/>
<feBlend mode="normal" in2="BackgroundImageFix" result="effect1_dropShadow"/>
<feBlend mode="normal" in="SourceGraphic" in2="effect1_dropShadow" result="shape"/>
</filter>
</defs>
</svg>
